<svg id="Layer_1" enable-background="new 0 0 50 50" height="512" viewBox="0 0 50 50" width="512" xmlns="http://www.w3.org/2000/svg"><g><path d="m3.7 31.3c0-.2 0-.3 0-.5 0-3.7 3-6.8 6.8-6.8 3.7 0 6.8 3 6.8 6.8 0 .5 0 .9-.1 1.3h17.2c-.1-.4-.1-.9-.1-1.3 0-3.7 3-6.8 6.8-6.8s6.8 3 6.8 6.8v.6c.1-.1.3-.2.4-.4.6-.7 1-1.7.8-2.6-.2-1.7-.6-4.2-1.3-5.8-.4-.8-1.1-1.3-1.9-1.4l-9.7-1.6c-1.2-.2-8.7-4.4-10.4-4.6-6.1-.8-12.3-.7-18.5.6-.7.1-1.4.6-1.9 1.2-2.3 3.3-3.8 4.9-4.1 7.7-.1.9-.3 4.3 0 4.9.3.7 1.1 1.3 2.4 1.9zm18.8-14.7c.9.1 1.9.2 2.9.3.2 0 .3.1.5.1l7.9 3.7-.4.5-4.8-.2-2.3-2.7c-.4-.4-1-.5-1.4-.1s-.5 1-.1 1.4l1.1 1.3-3.4-.2zm-9.2 0c2.3-.2 4.8-.3 7.2-.1v4.1l-6.4-.4c-.4 0-.8-.4-.8-.8z"/><path d="m10.5 35.6c2.6 0 4.8-2.1 4.8-4.8 0-2.6-2.2-4.8-4.8-4.8s-4.8 2.1-4.8 4.8 2.2 4.8 4.8 4.8z"/><path d="m45.8 30.8c0-2.6-2.2-4.8-4.8-4.8s-4.8 2.1-4.8 4.8c0 2.6 2.2 4.8 4.8 4.8s4.8-2.1 4.8-4.8z"/></g></svg>