<svg id="question" height="512" viewBox="0 0 32 32" width="512" xmlns="http://www.w3.org/2000/svg"><path d="m13 5.25c-7.03 0-12.75 5.72-12.75 12.75 0 2.4.67 4.72 1.93 6.75l-1.9 6.02c-.09.31.02.64.27.83.14.1.29.15.45.15.15 0 .3-.04.42-.13l4.43-3.05c2.12 1.43 4.58 2.18 7.15 2.18 7.03 0 12.75-5.72 12.75-12.75s-5.72-12.75-12.75-12.75zm0 20c-.42 0-.75-.34-.75-.75s.33-.75.75-.75c.41 0 .75.34.75.75s-.34.75-.75.75zm4.32-9.94c0 1.44-.76 2.79-2 3.53l-1.12.67c-.28.17-.45.47-.45.8v1.19c0 .41-.34.75-.75.75s-.75-.34-.75-.75v-1.19c0-.85.45-1.65 1.18-2.08l1.12-.68c.78-.47 1.27-1.33 1.27-2.24v-.24c0-1.55-1.26-2.82-2.82-2.82s-2.82 1.27-2.82 2.82c0 .42-.34.75-.75.75-.42 0-.75-.33-.75-.75 0-2.38 1.94-4.32 4.32-4.32s4.32 1.94 4.32 4.32z"/><path d="m31.45 26.6c-.14.1-.29.15-.45.15-.15 0-.3-.04-.42-.13l-4.43-3.05c-.02.01-.03.02-.05.03.74-1.72 1.15-3.61 1.15-5.6 0-7.86-6.39-14.25-14.25-14.25-1.08 0-2.12.12-3.13.35 2.36-2.45 5.62-3.85 9.13-3.85 7.03 0 12.75 5.72 12.75 12.75 0 2.4-.67 4.72-1.93 6.75l1.9 6.02c.09.31-.02.64-.27.83z"/></svg>